<svg width="28" height="27" viewBox="0 0 28 27" fill="none" xmlns="http://www.w3.org/2000/svg">
<mask id="path-1-outside-1_867_961" maskUnits="userSpaceOnUse" x="-1" y="-1" width="30" height="29" fill="black">
<rect fill="white" x="-1" y="-1" width="30" height="29"/>
<path d="M8.98531 1.112C9.65731 0.943999 10.5093 0.86 11.5413 0.86C12.5733 0.883999 13.3893 0.979999 13.9893 1.148C15.1893 1.508 16.1733 1.976 16.9413 2.552C17.8533 3.272 18.4773 4.028 18.8133 4.82C18.9813 5.108 19.2453 5.684 19.6053 6.548C20.2293 7.796 20.5413 9.392 20.5413 11.336C20.5413 14.648 19.6653 17.36 17.9133 19.472C17.6493 19.76 17.5173 20 17.5173 20.192C17.5173 20.408 17.6613 20.612 17.9493 20.804C18.0933 20.948 18.4893 21.404 19.1373 22.172C19.5693 22.796 19.8333 23.216 19.9293 23.432C19.9773 23.624 20.0013 23.768 20.0013 23.864C20.0013 24.104 19.9293 24.296 19.7853 24.44C19.4973 24.728 19.1373 24.872 18.7053 24.872C18.4173 24.872 18.1293 24.788 17.8413 24.62C17.6493 24.5 17.3493 24.188 16.9413 23.684C16.8213 23.54 16.6773 23.36 16.5093 23.144C16.3413 22.928 16.1373 22.676 15.8973 22.388L15.3573 21.812L14.4573 22.208L13.3053 22.712C12.9933 22.904 12.3813 23.012 11.4693 23.036C10.8453 23.084 10.3893 23.108 10.1013 23.108C9.78931 23.108 9.39331 23.084 8.91331 23.036C8.07331 22.892 7.58131 22.796 7.43731 22.748L6.64531 22.424L5.85331 22.1C4.70131 21.548 3.76531 20.888 3.04531 20.12C2.42131 19.472 1.83331 18.416 1.28131 16.952L0.921313 15.872V13.316C0.921313 11.66 1.00531 10.496 1.17331 9.824C1.26931 9.2 1.62931 8.252 2.25331 6.98C2.68531 6.116 3.23731 5.24 3.90931 4.352C4.60531 3.488 5.18131 2.888 5.63731 2.552C6.64531 1.904 7.76131 1.424 8.98531 1.112ZM3.47731 13.748C3.47731 14.108 3.52531 14.516 3.62131 14.972C3.74131 15.596 3.98131 16.256 4.34131 16.952C4.62931 17.648 4.92931 18.164 5.24131 18.5C5.50531 18.764 5.97331 19.064 6.64531 19.4C7.34131 19.736 7.94131 19.988 8.44531 20.156C8.92531 20.276 9.44131 20.336 9.99331 20.336C11.1213 20.336 11.9133 20.252 12.3693 20.084C12.9453 19.916 13.2573 19.772 13.3053 19.652V19.616C13.3053 19.52 13.1853 19.268 12.9453 18.86C12.4653 18.26 12.1413 17.876 11.9733 17.708C11.3973 17.084 11.1093 16.568 11.1093 16.16C11.1093 15.872 11.2413 15.596 11.5053 15.332C11.8413 15.116 12.0933 15.008 12.2613 15.008C12.8133 15.008 13.4853 15.512 14.2773 16.52C15.0453 17.432 15.4893 17.888 15.6093 17.888C15.6573 17.888 15.7893 17.732 16.0053 17.42C16.2933 17.036 16.4973 16.736 16.6173 16.52C17.0493 15.656 17.3613 14.864 17.5533 14.144C17.6733 13.352 17.7333 12.38 17.7333 11.228C17.7333 10.076 17.6973 9.344 17.6253 9.032C17.5293 8.624 17.2053 7.892 16.6533 6.836C16.3653 6.14 16.1373 5.684 15.9693 5.468C15.7773 5.228 15.4653 4.928 15.0333 4.568C14.3373 4.04 13.8813 3.74 13.6653 3.668C13.3773 3.548 12.9213 3.476 12.2973 3.452C11.6253 3.428 11.1333 3.428 10.8213 3.452C8.87731 3.716 7.53331 4.256 6.78931 5.072C6.23731 5.576 5.70931 6.284 5.20531 7.196C4.60531 8.18 4.23331 8.936 4.08931 9.464C4.04131 9.704 3.98131 9.86 3.90931 9.932C3.86131 10.1 3.76531 10.796 3.62131 12.02C3.52531 12.788 3.47731 13.364 3.47731 13.748ZM24.4276 22.64C24.7156 22.496 25.0036 22.424 25.2916 22.424C25.8196 22.424 26.3236 22.664 26.8036 23.144C26.9716 23.312 27.0676 23.468 27.0916 23.612C27.1156 23.708 27.1276 24.008 27.1276 24.512C27.1276 24.944 27.1036 25.256 27.0556 25.448C27.0316 25.544 26.8996 25.688 26.6596 25.88C26.2276 26.24 25.7596 26.42 25.2556 26.42C24.7276 26.372 24.2836 26.168 23.9236 25.808C23.7076 25.616 23.5756 25.46 23.5276 25.34C23.4796 25.148 23.4556 24.872 23.4556 24.512C23.4556 23.6 23.7796 22.976 24.4276 22.64Z"/>
</mask>
<path d="M8.98531 1.112C9.65731 0.943999 10.5093 0.86 11.5413 0.86C12.5733 0.883999 13.3893 0.979999 13.9893 1.148C15.1893 1.508 16.1733 1.976 16.9413 2.552C17.8533 3.272 18.4773 4.028 18.8133 4.82C18.9813 5.108 19.2453 5.684 19.6053 6.548C20.2293 7.796 20.5413 9.392 20.5413 11.336C20.5413 14.648 19.6653 17.36 17.9133 19.472C17.6493 19.76 17.5173 20 17.5173 20.192C17.5173 20.408 17.6613 20.612 17.9493 20.804C18.0933 20.948 18.4893 21.404 19.1373 22.172C19.5693 22.796 19.8333 23.216 19.9293 23.432C19.9773 23.624 20.0013 23.768 20.0013 23.864C20.0013 24.104 19.9293 24.296 19.7853 24.44C19.4973 24.728 19.1373 24.872 18.7053 24.872C18.4173 24.872 18.1293 24.788 17.8413 24.62C17.6493 24.5 17.3493 24.188 16.9413 23.684C16.8213 23.54 16.6773 23.36 16.5093 23.144C16.3413 22.928 16.1373 22.676 15.8973 22.388L15.3573 21.812L14.4573 22.208L13.3053 22.712C12.9933 22.904 12.3813 23.012 11.4693 23.036C10.8453 23.084 10.3893 23.108 10.1013 23.108C9.78931 23.108 9.39331 23.084 8.91331 23.036C8.07331 22.892 7.58131 22.796 7.43731 22.748L6.64531 22.424L5.85331 22.1C4.70131 21.548 3.76531 20.888 3.04531 20.12C2.42131 19.472 1.83331 18.416 1.28131 16.952L0.921313 15.872V13.316C0.921313 11.66 1.00531 10.496 1.17331 9.824C1.26931 9.2 1.62931 8.252 2.25331 6.98C2.68531 6.116 3.23731 5.24 3.90931 4.352C4.60531 3.488 5.18131 2.888 5.63731 2.552C6.64531 1.904 7.76131 1.424 8.98531 1.112ZM3.47731 13.748C3.47731 14.108 3.52531 14.516 3.62131 14.972C3.74131 15.596 3.98131 16.256 4.34131 16.952C4.62931 17.648 4.92931 18.164 5.24131 18.5C5.50531 18.764 5.97331 19.064 6.64531 19.4C7.34131 19.736 7.94131 19.988 8.44531 20.156C8.92531 20.276 9.44131 20.336 9.99331 20.336C11.1213 20.336 11.9133 20.252 12.3693 20.084C12.9453 19.916 13.2573 19.772 13.3053 19.652V19.616C13.3053 19.52 13.1853 19.268 12.9453 18.86C12.4653 18.26 12.1413 17.876 11.9733 17.708C11.3973 17.084 11.1093 16.568 11.1093 16.16C11.1093 15.872 11.2413 15.596 11.5053 15.332C11.8413 15.116 12.0933 15.008 12.2613 15.008C12.8133 15.008 13.4853 15.512 14.2773 16.52C15.0453 17.432 15.4893 17.888 15.6093 17.888C15.6573 17.888 15.7893 17.732 16.0053 17.42C16.2933 17.036 16.4973 16.736 16.6173 16.52C17.0493 15.656 17.3613 14.864 17.5533 14.144C17.6733 13.352 17.7333 12.38 17.7333 11.228C17.7333 10.076 17.6973 9.344 17.6253 9.032C17.5293 8.624 17.2053 7.892 16.6533 6.836C16.3653 6.14 16.1373 5.684 15.9693 5.468C15.7773 5.228 15.4653 4.928 15.0333 4.568C14.3373 4.04 13.8813 3.74 13.6653 3.668C13.3773 3.548 12.9213 3.476 12.2973 3.452C11.6253 3.428 11.1333 3.428 10.8213 3.452C8.87731 3.716 7.53331 4.256 6.78931 5.072C6.23731 5.576 5.70931 6.284 5.20531 7.196C4.60531 8.18 4.23331 8.936 4.08931 9.464C4.04131 9.704 3.98131 9.86 3.90931 9.932C3.86131 10.1 3.76531 10.796 3.62131 12.02C3.52531 12.788 3.47731 13.364 3.47731 13.748ZM24.4276 22.64C24.7156 22.496 25.0036 22.424 25.2916 22.424C25.8196 22.424 26.3236 22.664 26.8036 23.144C26.9716 23.312 27.0676 23.468 27.0916 23.612C27.1156 23.708 27.1276 24.008 27.1276 24.512C27.1276 24.944 27.1036 25.256 27.0556 25.448C27.0316 25.544 26.8996 25.688 26.6596 25.88C26.2276 26.24 25.7596 26.42 25.2556 26.42C24.7276 26.372 24.2836 26.168 23.9236 25.808C23.7076 25.616 23.5756 25.46 23.5276 25.34C23.4796 25.148 23.4556 24.872 23.4556 24.512C23.4556 23.6 23.7796 22.976 24.4276 22.64Z" fill="#4C3220"/>
<path d="M8.98531 1.112L8.74278 0.141846L8.73831 0.142984L8.98531 1.112ZM11.5413 0.86L11.5646 -0.13973L11.5529 -0.14H11.5413V0.86ZM13.9893 1.148L14.2767 0.190172L14.2678 0.187521L14.2589 0.185034L13.9893 1.148ZM16.9413 2.552L17.561 1.76712L17.5512 1.75944L17.5413 1.752L16.9413 2.552ZM18.8133 4.82L17.8927 5.21055L17.9175 5.26901L17.9495 5.32387L18.8133 4.82ZM19.6053 6.548L18.6822 6.93261L18.6955 6.96441L18.7109 6.99521L19.6053 6.548ZM17.9133 19.472L18.6505 20.1477L18.6672 20.1295L18.683 20.1105L17.9133 19.472ZM17.9493 20.804L18.6564 20.0969L18.5864 20.0269L18.504 19.972L17.9493 20.804ZM19.1373 22.172L19.9595 21.6028L19.9324 21.5636L19.9016 21.5271L19.1373 22.172ZM19.9293 23.432L20.8995 23.1895L20.8784 23.1052L20.8431 23.0259L19.9293 23.432ZM19.7853 24.44L19.0782 23.7329L19.0782 23.7329L19.7853 24.44ZM17.8413 24.62L17.3113 25.468L17.3243 25.4761L17.3374 25.4838L17.8413 24.62ZM16.9413 23.684L17.7186 23.0548L17.7141 23.0493L17.7095 23.0438L16.9413 23.684ZM16.5093 23.144L17.2987 22.5301L17.2987 22.5301L16.5093 23.144ZM15.8973 22.388L16.6655 21.7478L16.6468 21.7254L16.6269 21.7041L15.8973 22.388ZM15.3573 21.812L16.0869 21.1281L15.6026 20.6115L14.9546 20.8967L15.3573 21.812ZM14.4573 22.208L14.8581 23.1242L14.8601 23.1233L14.4573 22.208ZM13.3053 22.712L12.9045 21.7958L12.8406 21.8238L12.7812 21.8603L13.3053 22.712ZM11.4693 23.036L11.443 22.0363L11.4178 22.037L11.3926 22.0389L11.4693 23.036ZM8.91331 23.036L8.74435 24.0216L8.77891 24.0275L8.81381 24.031L8.91331 23.036ZM7.43731 22.748L7.05868 23.6735L7.0895 23.6862L7.12109 23.6967L7.43731 22.748ZM6.64531 22.424L6.26668 23.3495L6.64531 22.424ZM5.85331 22.1L5.42119 23.0018L5.44759 23.0145L5.47468 23.0255L5.85331 22.1ZM3.04531 20.12L3.77492 19.436L3.76563 19.4264L3.04531 20.12ZM1.28131 16.952L0.332629 17.2682L0.338767 17.2866L0.345615 17.3048L1.28131 16.952ZM0.921313 15.872H-0.0786874V16.0343L-0.0273708 16.1882L0.921313 15.872ZM1.17331 9.824L2.14346 10.0665L2.15466 10.0217L2.16168 9.97606L1.17331 9.824ZM2.25331 6.98L1.35886 6.53277L1.35552 6.53957L2.25331 6.98ZM3.90931 4.352L3.13056 3.72467L3.12105 3.73647L3.11191 3.74856L3.90931 4.352ZM5.63731 2.552L5.09656 1.71082L5.06976 1.72805L5.04411 1.74694L5.63731 2.552ZM3.62131 14.972L4.60332 14.7832L4.60167 14.7746L4.59986 14.766L3.62131 14.972ZM4.34131 16.952L5.26533 16.5696L5.24907 16.5304L5.22953 16.4926L4.34131 16.952ZM5.24131 18.5L4.50852 19.1805L4.52112 19.194L4.53421 19.2071L5.24131 18.5ZM6.64531 19.4L6.19806 20.2945L6.21056 20.3006L6.64531 19.4ZM8.44531 20.156L8.12908 21.1047L8.16552 21.1168L8.20278 21.1261L8.44531 20.156ZM12.3693 20.084L12.0893 19.124L12.0561 19.1337L12.0236 19.1457L12.3693 20.084ZM13.3053 19.652L14.2338 20.0234L14.3053 19.8446V19.652H13.3053ZM12.9453 18.86L13.8072 18.353L13.7709 18.2912L13.7262 18.2353L12.9453 18.86ZM11.9733 17.708L11.2385 18.3863L11.2521 18.401L11.2662 18.4151L11.9733 17.708ZM11.5053 15.332L10.9646 14.4908L10.8742 14.5489L10.7982 14.6249L11.5053 15.332ZM14.2773 16.52L13.491 17.1378L13.5015 17.1512L13.5124 17.1641L14.2773 16.52ZM16.0053 17.42L15.2053 16.82L15.1939 16.8352L15.1831 16.8508L16.0053 17.42ZM16.6173 16.52L17.4915 17.0056L17.502 16.9866L17.5117 16.9672L16.6173 16.52ZM17.5533 14.144L18.5195 14.4017L18.5338 14.3484L18.542 14.2938L17.5533 14.144ZM17.6253 9.032L18.5997 8.80714L18.5987 8.80296L17.6253 9.032ZM16.6533 6.836L15.7293 7.21835L15.7464 7.25965L15.7671 7.29925L16.6533 6.836ZM15.9693 5.468L16.7587 4.854L16.7502 4.8433L15.9693 5.468ZM15.0333 4.568L15.6735 3.79978L15.6559 3.78513L15.6377 3.77131L15.0333 4.568ZM13.6653 3.668L13.2807 4.59107L13.3144 4.60513L13.3491 4.61668L13.6653 3.668ZM12.2973 3.452L12.3357 2.45273L12.333 2.45264L12.2973 3.452ZM10.8213 3.452L10.7446 2.45494L10.7156 2.45718L10.6867 2.46109L10.8213 3.452ZM6.78931 5.072L7.46358 5.81048L7.49741 5.7796L7.52827 5.74575L6.78931 5.072ZM5.20531 7.196L6.05911 7.71661L6.07023 7.69838L6.08055 7.67969L5.20531 7.196ZM4.08931 9.464L3.12455 9.20088L3.11549 9.23411L3.10873 9.26788L4.08931 9.464ZM3.90931 9.932L3.2022 9.2249L3.01898 9.40812L2.94779 9.65728L3.90931 9.932ZM3.62131 12.02L4.61362 12.144L4.61446 12.1368L3.62131 12.02ZM9.22785 2.08214C9.79208 1.94109 10.5553 1.86 11.5413 1.86V-0.14C10.4633 -0.14 9.52255 -0.0530868 8.74278 0.141856L9.22785 2.08214ZM11.5181 1.85973C12.5135 1.88288 13.2351 1.97529 13.7197 2.11096L14.2589 0.185034C13.5435 -0.0152912 12.6331 -0.114881 11.5646 -0.13973L11.5181 1.85973ZM13.702 2.10582C14.8218 2.44178 15.6912 2.86445 16.3413 3.352L17.5413 1.752C16.6554 1.08755 15.5568 0.574217 14.2767 0.190172L13.702 2.10582ZM16.3217 3.33688C17.1461 3.98777 17.6413 4.61793 17.8927 5.21055L19.7339 4.42945C19.3133 3.43807 18.5605 2.55623 17.561 1.76712L16.3217 3.33688ZM17.9495 5.32387C18.0789 5.5456 18.3192 6.06131 18.6822 6.93261L20.5284 6.16338C20.1714 5.30669 19.8837 4.6704 19.6771 4.31613L17.9495 5.32387ZM18.7109 6.99521C19.2437 8.06076 19.5413 9.48978 19.5413 11.336H21.5413C21.5413 9.29422 21.215 7.53123 20.4997 6.10079L18.7109 6.99521ZM19.5413 11.336C19.5413 14.465 18.7176 16.9362 17.1437 18.8335L18.683 20.1105C20.613 17.7838 21.5413 14.831 21.5413 11.336H19.5413ZM17.1762 18.7963C16.8918 19.1065 16.5173 19.5936 16.5173 20.192H18.5173C18.5173 20.2587 18.5059 20.3067 18.4984 20.3312C18.4911 20.3552 18.486 20.3619 18.4925 20.3499C18.4989 20.3383 18.5132 20.3148 18.5401 20.279C18.5667 20.2435 18.6027 20.1998 18.6505 20.1477L17.1762 18.7963ZM16.5173 20.192C16.5173 20.9069 17.001 21.3736 17.3946 21.636L18.504 19.972C18.4257 19.9197 18.4217 19.9011 18.4423 19.9303C18.4543 19.9474 18.4739 19.9797 18.4903 20.0274C18.507 20.0764 18.5173 20.1326 18.5173 20.192H16.5173ZM17.2422 21.5111C17.3486 21.6175 17.7111 22.0323 18.373 22.8169L19.9016 21.5271C19.2675 20.7757 18.838 20.2785 18.6564 20.0969L17.2422 21.5111ZM18.3151 22.7412C18.759 23.3823 18.9646 23.7237 19.0155 23.8381L20.8431 23.0259C20.702 22.7083 20.3797 22.2097 19.9595 21.6028L18.3151 22.7412ZM18.9592 23.6745C18.9788 23.7531 18.9905 23.81 18.9969 23.8484C19.004 23.891 19.0013 23.8916 19.0013 23.864H21.0013C21.0013 23.6389 20.951 23.3956 20.8995 23.1895L18.9592 23.6745ZM19.0013 23.864C19.0013 23.8841 18.9984 23.8705 19.011 23.8369C19.0247 23.8002 19.0485 23.7626 19.0782 23.7329L20.4924 25.1471C20.8572 24.7824 21.0013 24.3183 21.0013 23.864H19.0013ZM19.0782 23.7329C18.99 23.8211 18.89 23.872 18.7053 23.872V25.872C19.3847 25.872 20.0046 25.6349 20.4924 25.1471L19.0782 23.7329ZM18.7053 23.872C18.6207 23.872 18.5047 23.8493 18.3452 23.7562L17.3374 25.4838C17.7539 25.7267 18.214 25.872 18.7053 25.872V23.872ZM18.3713 23.772C18.3823 23.7789 18.3279 23.743 18.1931 23.6029C18.0699 23.4748 17.9125 23.2944 17.7186 23.0548L16.1641 24.3132C16.3781 24.5776 16.5747 24.8053 16.7515 24.9891C16.9168 25.161 17.1083 25.3411 17.3113 25.468L18.3713 23.772ZM17.7095 23.0438C17.5992 22.9114 17.4626 22.7408 17.2987 22.5301L15.72 23.7579C15.892 23.9792 16.0435 24.1686 16.1731 24.3242L17.7095 23.0438ZM17.2987 22.5301C17.1218 22.3026 16.9103 22.0415 16.6655 21.7478L15.1291 23.0282C15.3643 23.3105 15.5608 23.5534 15.72 23.7579L17.2987 22.5301ZM16.6269 21.7041L16.0869 21.1281L14.6278 22.4959L15.1678 23.0719L16.6269 21.7041ZM14.9546 20.8967L14.0546 21.2927L14.8601 23.1233L15.7601 22.7273L14.9546 20.8967ZM14.0565 21.2918L12.9045 21.7958L13.7061 23.6282L14.8581 23.1242L14.0565 21.2918ZM12.7812 21.8603C12.7821 21.8598 12.6947 21.907 12.4385 21.9522C12.198 21.9947 11.8702 22.0251 11.443 22.0363L11.4956 24.0357C11.9805 24.0229 12.4146 23.9873 12.7861 23.9218C13.142 23.859 13.5165 23.7562 13.8294 23.5637L12.7812 21.8603ZM11.3926 22.0389C10.7718 22.0867 10.3483 22.108 10.1013 22.108V24.108C10.4303 24.108 10.9189 24.0813 11.546 24.0331L11.3926 22.0389ZM10.1013 22.108C9.83529 22.108 9.47549 22.0872 9.01282 22.041L8.81381 24.031C9.31114 24.0808 9.74333 24.108 10.1013 24.108V22.108ZM9.08228 22.0504C8.6654 21.9789 8.34094 21.9204 8.10582 21.8745C7.84462 21.8235 7.75263 21.799 7.75354 21.7993L7.12109 23.6967C7.266 23.745 7.49201 23.7925 7.7228 23.8375C7.97969 23.8876 8.32123 23.9491 8.74435 24.0216L9.08228 22.0504ZM7.81595 21.8225L7.02394 21.4985L6.26668 23.3495L7.05868 23.6735L7.81595 21.8225ZM7.02395 21.4985L6.23195 21.1745L5.47468 23.0255L6.26668 23.3495L7.02395 21.4985ZM6.28543 21.1982C5.22203 20.6886 4.3941 20.0966 3.77485 19.4361L2.31578 20.8039C3.13652 21.6794 4.1806 22.4074 5.42119 23.0018L6.28543 21.1982ZM3.76563 19.4264C3.28113 18.9232 2.75133 18.0163 2.21701 16.5992L0.345615 17.3048C0.915296 18.8157 1.5615 20.0208 2.32499 20.8136L3.76563 19.4264ZM2.23 16.6358L1.87 15.5558L-0.0273708 16.1882L0.332629 17.2682L2.23 16.6358ZM1.92131 15.872V13.316H-0.0786874V15.872H1.92131ZM1.92131 13.316C1.92131 11.6601 2.00835 10.607 2.14346 10.0665L0.20317 9.58146C0.00227678 10.385 -0.0786874 11.6599 -0.0786874 13.316H1.92131ZM2.16168 9.97606C2.23257 9.5153 2.5303 8.68591 3.1511 7.42042L1.35552 6.53957C0.728325 7.81809 0.306054 8.8847 0.184941 9.67194L2.16168 9.97606ZM3.14774 7.42721C3.54848 6.62573 4.0663 5.8017 4.70672 4.95544L3.11191 3.74856C2.40832 4.67829 1.82214 5.60627 1.35889 6.53279L3.14774 7.42721ZM4.68807 4.97933C5.37122 4.13128 5.88179 3.61401 6.23051 3.35705L5.04411 1.74694C4.48083 2.16199 3.83941 2.84472 3.13056 3.72467L4.68807 4.97933ZM6.17807 3.39318C7.09087 2.80638 8.1068 2.36791 9.23232 2.08101L8.73831 0.142984C7.41582 0.480088 6.19976 1.00162 5.09656 1.71082L6.17807 3.39318ZM2.47731 13.748C2.47731 14.194 2.53643 14.6729 2.64276 15.178L4.59986 14.766C4.5142 14.3591 4.47731 14.022 4.47731 13.748H2.47731ZM2.63931 15.1608C2.78107 15.898 3.05885 16.6492 3.45309 17.4114L5.22953 16.4926C4.90378 15.8628 4.70156 15.294 4.60332 14.7832L2.63931 15.1608ZM3.4173 17.3344C3.7254 18.0789 4.08015 18.7191 4.50852 19.1805L5.97411 17.8195C5.77848 17.6089 5.53323 17.2171 5.26533 16.5696L3.4173 17.3344ZM4.53421 19.2071C4.91749 19.5904 5.5068 19.9488 6.1981 20.2944L7.09253 18.5056C6.43982 18.1792 6.09314 17.9376 5.94842 17.7929L4.53421 19.2071ZM6.21056 20.3006C6.9294 20.6476 7.57094 20.9186 8.12908 21.1047L8.76154 19.2073C8.31169 19.0574 7.75323 18.8244 7.08006 18.4994L6.21056 20.3006ZM8.20278 21.1261C8.77063 21.2681 9.36884 21.336 9.99331 21.336V19.336C9.51379 19.336 9.08 19.2839 8.68785 19.1859L8.20278 21.1261ZM9.99331 21.336C11.1244 21.336 12.0762 21.2577 12.715 21.0223L12.0236 19.1457C11.7504 19.2463 11.1182 19.336 9.99331 19.336V21.336ZM12.6493 21.044C12.9554 20.9547 13.2322 20.8605 13.4544 20.758C13.5643 20.7072 13.6917 20.6405 13.8112 20.5529C13.9106 20.48 14.1183 20.312 14.2338 20.0234L12.3768 19.2806C12.4263 19.1569 12.4917 19.0733 12.5334 19.0272C12.5761 18.9801 12.6123 18.9519 12.6284 18.9401C12.658 18.9185 12.6623 18.9208 12.6163 18.942C12.5265 18.9835 12.3592 19.0453 12.0893 19.124L12.6493 21.044ZM14.3053 19.652V19.616H12.3053V19.652H14.3053ZM14.3053 19.616C14.3053 19.4211 14.2525 19.2593 14.2282 19.1888C14.1965 19.0968 14.157 19.0065 14.1182 18.9251C14.04 18.761 13.9334 18.5674 13.8072 18.353L12.0834 19.367C12.1972 19.5606 12.2706 19.697 12.3125 19.7849C12.3337 19.8295 12.3392 19.8457 12.3374 19.8407C12.3364 19.8376 12.3301 19.8194 12.3235 19.7896C12.3177 19.7635 12.3053 19.7011 12.3053 19.616H14.3053ZM13.7262 18.2353C13.2539 17.645 12.8948 17.2153 12.6804 17.0009L11.2662 18.4151C11.3878 18.5367 11.6767 18.875 12.1644 19.4847L13.7262 18.2353ZM12.7081 17.0297C12.4525 16.7528 12.2914 16.532 12.1985 16.3656C12.1028 16.1941 12.1093 16.1338 12.1093 16.16H10.1093C10.1093 16.5942 10.2598 16.9959 10.4521 17.3404C10.6472 17.69 10.9181 18.0392 11.2385 18.3863L12.7081 17.0297ZM12.1093 16.16C12.1093 16.1745 12.1048 16.1803 12.1104 16.1685C12.1181 16.1524 12.1435 16.108 12.2124 16.0391L10.7982 14.6249C10.4047 15.0184 10.1093 15.5347 10.1093 16.16H12.1093ZM12.0461 16.1732C12.1865 16.0829 12.2826 16.0329 12.3402 16.0081C12.3679 15.9963 12.3765 15.9947 12.3686 15.9967C12.362 15.9985 12.3235 16.008 12.2613 16.008V14.008C11.9829 14.008 11.7339 14.0921 11.5524 14.1699C11.3581 14.2531 11.1602 14.3651 10.9646 14.4908L12.0461 16.1732ZM12.2613 16.008C12.2342 16.008 12.3311 15.9998 12.5793 16.186C12.8192 16.3659 13.1238 16.6705 13.491 17.1378L15.0636 15.9022C14.6388 15.3615 14.2115 14.9101 13.7793 14.586C13.3556 14.2682 12.8404 14.008 12.2613 14.008V16.008ZM13.5124 17.1641C13.901 17.6256 14.2224 17.9895 14.4698 18.2436C14.5912 18.3683 14.7139 18.4864 14.8298 18.5801C14.8866 18.626 14.9642 18.6845 15.0558 18.7365C15.1158 18.7705 15.3248 18.888 15.6093 18.888V16.888C15.7527 16.888 15.8616 16.9204 15.9177 16.9403C15.978 16.9617 16.0209 16.9846 16.0425 16.9968C16.0838 17.0202 16.101 17.036 16.0873 17.0249C16.0622 17.0046 16.0034 16.9517 15.9028 16.8484C15.7062 16.6465 15.4216 16.3264 15.0422 15.8759L13.5124 17.1641ZM15.6093 18.888C15.8657 18.888 16.0515 18.7919 16.1233 18.7512C16.211 18.7017 16.2768 18.6484 16.316 18.6144C16.3953 18.5457 16.4614 18.4717 16.5077 18.4169C16.6052 18.3018 16.7138 18.1534 16.8275 17.9892L15.1831 16.8508C15.0808 16.9986 15.0155 17.0842 14.9809 17.1251C14.9613 17.1483 14.9718 17.1328 15.0061 17.1031C15.0228 17.0886 15.0687 17.0499 15.1392 17.0101C15.1759 16.9894 15.2314 16.9614 15.3031 16.9375C15.3739 16.9139 15.4792 16.888 15.6093 16.888V18.888ZM16.8053 18.02C17.1003 17.6267 17.3375 17.2829 17.4915 17.0056L15.7432 16.0344C15.6572 16.1891 15.4864 16.4453 15.2053 16.82L16.8053 18.02ZM17.5117 16.9672C17.9656 16.0594 18.3058 15.203 18.5195 14.4017L16.5871 13.8863C16.4168 14.525 16.133 15.2526 15.7229 16.0728L17.5117 16.9672ZM18.542 14.2938C18.672 13.4359 18.7333 12.4104 18.7333 11.228H16.7333C16.7333 12.3496 16.6746 13.2681 16.5646 13.9942L18.542 14.2938ZM18.7333 11.228C18.7333 10.1108 18.7026 9.25315 18.5997 8.80714L16.6509 9.25686C16.692 9.43485 16.7333 10.0412 16.7333 11.228H18.7333ZM18.5987 8.80296C18.4695 8.25358 18.0838 7.41386 17.5395 6.37274L15.7671 7.29925C16.3269 8.37014 16.5892 8.99442 16.6519 9.26104L18.5987 8.80296ZM17.5773 6.45365C17.295 5.77136 17.0216 5.19217 16.7587 4.85406L15.18 6.08194C15.253 6.17583 15.4356 6.50864 15.7293 7.21835L17.5773 6.45365ZM16.7502 4.8433C16.4951 4.52442 16.1222 4.17366 15.6735 3.79978L14.3931 5.33622C14.8085 5.68234 15.0595 5.93157 15.1884 6.09269L16.7502 4.8433ZM15.6377 3.77131C15.2811 3.50076 14.9733 3.2789 14.7189 3.11158C14.4911 2.96172 14.2264 2.80093 13.9815 2.71932L13.3491 4.61668C13.3202 4.60707 13.3915 4.63228 13.6197 4.78242C13.8214 4.9151 14.0896 5.10724 14.4289 5.36469L15.6377 3.77131ZM14.0499 2.74492C13.5895 2.55307 12.984 2.47767 12.3357 2.45274L12.2589 4.45126C12.8586 4.47433 13.1651 4.54293 13.2807 4.59107L14.0499 2.74492ZM12.333 2.45264C11.6559 2.42845 11.1164 2.42635 10.7446 2.45494L10.898 4.44905C11.1503 4.42965 11.5947 4.42754 12.2616 4.45136L12.333 2.45264ZM10.6867 2.46109C8.67214 2.73468 7.03548 3.31779 6.05036 4.39824L7.52827 5.74575C8.03115 5.19421 9.08249 4.69732 10.9559 4.4429L10.6867 2.46109ZM6.11504 4.33351C5.45785 4.93356 4.86761 5.73963 4.33007 6.71231L6.08055 7.67969C6.55102 6.82837 7.01678 6.21844 7.46358 5.81048L6.11504 4.33351ZM4.35152 6.67539C3.7442 7.6714 3.30793 8.52849 3.12455 9.20088L5.05408 9.72712C5.1587 9.34351 5.46643 8.6886 6.05911 7.71661L4.35152 6.67539ZM3.10873 9.26788C3.10041 9.30951 3.09274 9.3415 3.0863 9.36513C3.07974 9.38916 3.07554 9.40053 3.07497 9.40202C3.07408 9.40433 3.0799 9.3884 3.09564 9.36121C3.11069 9.3352 3.14376 9.28334 3.2022 9.2249L4.61642 10.6391C4.79494 10.4606 4.88967 10.2551 4.94166 10.12C4.99896 9.97099 5.03939 9.81262 5.06989 9.66012L3.10873 9.26788ZM2.94779 9.65728C2.89993 9.82478 2.85503 10.1219 2.81069 10.4434C2.76135 10.8011 2.70046 11.2887 2.62816 11.9032L4.61446 12.1368C4.68617 11.5273 4.74527 11.0549 4.79193 10.7166C4.81532 10.5471 4.83488 10.4164 4.85071 10.3214C4.86899 10.2117 4.87621 10.1879 4.87084 10.2067L2.94779 9.65728ZM2.62903 11.896C2.53195 12.6726 2.47731 13.2992 2.47731 13.748H4.47731C4.47731 13.4288 4.51868 12.9034 4.61359 12.144L2.62903 11.896ZM24.4276 22.64L23.9804 21.7456L23.9738 21.7489L23.9673 21.7522L24.4276 22.64ZM26.8036 23.144L26.0965 23.8511L26.8036 23.144ZM27.0916 23.612L26.1052 23.7764L26.1118 23.8158L26.1215 23.8545L27.0916 23.612ZM27.0556 25.448L26.0855 25.2055L26.0855 25.2055L27.0556 25.448ZM26.6596 25.88L26.0349 25.0991L26.0271 25.1054L26.0194 25.1118L26.6596 25.88ZM25.2556 26.42L25.1651 27.4159L25.2103 27.42H25.2556V26.42ZM23.9236 25.808L24.6307 25.1009L24.61 25.0801L24.588 25.0606L23.9236 25.808ZM23.5276 25.34L22.5575 25.5825L22.5739 25.6484L22.5991 25.7114L23.5276 25.34ZM24.8748 23.5344C25.0406 23.4516 25.1764 23.424 25.2916 23.424V21.424C24.8309 21.424 24.3907 21.5404 23.9804 21.7456L24.8748 23.5344ZM25.2916 23.424C25.4845 23.424 25.748 23.5026 26.0965 23.8511L27.5107 22.4369C26.8992 21.8254 26.1548 21.424 25.2916 21.424V23.424ZM26.0965 23.8511C26.1177 23.8723 26.132 23.8885 26.1409 23.8994C26.1499 23.9104 26.152 23.9144 26.15 23.9111C26.1469 23.906 26.1191 23.8598 26.1052 23.7764L28.078 23.4476C28.0043 23.0052 27.7416 22.6677 27.5107 22.4369L26.0965 23.8511ZM26.1215 23.8545C26.108 23.8006 26.108 23.7742 26.1115 23.8128C26.1139 23.8393 26.1168 23.8833 26.1194 23.949C26.1247 24.0798 26.1276 24.2657 26.1276 24.512H28.1276C28.1276 24.2543 28.1246 24.0382 28.1178 23.869C28.1126 23.7375 28.103 23.5342 28.0618 23.3695L26.1215 23.8545ZM26.1276 24.512C26.1276 24.935 26.1015 25.1413 26.0855 25.2055L28.0258 25.6905C28.1057 25.3707 28.1276 24.953 28.1276 24.512H26.1276ZM26.0855 25.2055C26.1012 25.1425 26.1213 25.0932 26.1373 25.0592C26.1535 25.0249 26.1688 24.9997 26.1789 24.984C26.1981 24.9545 26.2096 24.9434 26.2015 24.9523C26.1947 24.9597 26.1784 24.9764 26.1491 25.0029C26.1203 25.0289 26.0827 25.0609 26.0349 25.0991L27.2843 26.6609C27.4245 26.5487 27.5612 26.4287 27.6758 26.3037C27.7647 26.2067 27.9503 25.9925 28.0258 25.6905L26.0855 25.2055ZM26.0194 25.1118C25.745 25.3405 25.4984 25.42 25.2556 25.42V27.42C26.0209 27.42 26.7103 27.1395 27.2998 26.6482L26.0194 25.1118ZM25.3462 25.4241C25.0407 25.3963 24.818 25.2882 24.6307 25.1009L23.2165 26.5151C23.7492 27.0478 24.4146 27.3477 25.1651 27.4159L25.3462 25.4241ZM24.588 25.0606C24.5021 24.9843 24.4518 24.9316 24.426 24.9011C24.4137 24.8865 24.4122 24.8832 24.417 24.8905C24.4212 24.8969 24.4381 24.9235 24.4561 24.9686L22.5991 25.7114C22.7418 26.068 23.0367 26.3576 23.2593 26.5554L24.588 25.0606ZM24.4978 25.0975C24.4796 25.0246 24.4556 24.8452 24.4556 24.512H22.4556C22.4556 24.8988 22.4797 25.2714 22.5575 25.5825L24.4978 25.0975ZM24.4556 24.512C24.4556 23.8627 24.6595 23.6462 24.8879 23.5278L23.9673 21.7522C22.8997 22.3058 22.4556 23.3373 22.4556 24.512H24.4556Z" fill="white" mask="url(#path-1-outside-1_867_961)"/>
</svg>
